<svg xmlns="http://www.w3.org/2000/svg" width="1280" height="360" viewBox="0 0 1280 360" role="img" aria-labelledby="title desc">
  <title id="title">go-mysql-binlog</title>
  <desc id="desc">A title banner for the go-mysql-binlog project.</desc>
  <defs>
    <linearGradient id="bg" x1="0" y1="0" x2="1" y2="1">
      <stop offset="0" stop-color="#0f172a"/>
      <stop offset="0.55" stop-color="#123047"/>
      <stop offset="1" stop-color="#114236"/>
    </linearGradient>
    <linearGradient id="stream" x1="0" y1="0" x2="1" y2="0">
      <stop offset="0" stop-color="#60a5fa"/>
      <stop offset="1" stop-color="#34d399"/>
    </linearGradient>
    <filter id="soft" x="-20%" y="-20%" width="140%" height="140%">
      <feGaussianBlur stdDeviation="18"/>
    </filter>
  </defs>

  <rect width="1280" height="360" rx="28" fill="url(#bg)"/>
  <circle cx="1110" cy="76" r="104" fill="#22c55e" opacity="0.13" filter="url(#soft)"/>
  <circle cx="190" cy="286" r="120" fill="#38bdf8" opacity="0.12" filter="url(#soft)"/>

  <g transform="translate(92 82)">
    <rect x="0" y="0" width="148" height="196" rx="20" fill="#0b1220" stroke="#60a5fa" stroke-opacity="0.55"/>
    <ellipse cx="74" cy="34" rx="52" ry="18" fill="#1e293b" stroke="#93c5fd" stroke-width="3"/>
    <path d="M22 34v92c0 10 23 18 52 18s52-8 52-18V34" fill="none" stroke="#93c5fd" stroke-width="3"/>
    <ellipse cx="74" cy="126" rx="52" ry="18" fill="#0f1f33" stroke="#93c5fd" stroke-width="3"/>
    <path d="M48 166h52" stroke="#34d399" stroke-width="8" stroke-linecap="round"/>
  </g>

  <g fill="none" stroke="url(#stream)" stroke-width="6" stroke-linecap="round">
    <path d="M274 154h96c50 0 50-42 100-42h76"/>
    <path d="M274 194h148c42 0 42 42 84 42h90"/>
    <path d="M274 174h330"/>
  </g>

  <g transform="translate(646 82)">
    <rect x="0" y="0" width="542" height="196" rx="22" fill="#08111f" stroke="#34d399" stroke-opacity="0.45"/>
    <rect x="28" y="28" width="486" height="36" rx="10" fill="#132238"/>
    <rect x="28" y="82" width="122" height="24" rx="8" fill="#1d4ed8" opacity="0.82"/>
    <rect x="166" y="82" width="112" height="24" rx="8" fill="#0f766e" opacity="0.85"/>
    <rect x="294" y="82" width="154" height="24" rx="8" fill="#16a34a" opacity="0.75"/>
    <rect x="28" y="126" width="206" height="20" rx="7" fill="#64748b" opacity="0.65"/>
    <rect x="250" y="126" width="162" height="20" rx="7" fill="#64748b" opacity="0.52"/>
    <rect x="28" y="158" width="346" height="18" rx="7" fill="#64748b" opacity="0.42"/>
  </g>

  <text x="640" y="143" text-anchor="middle" font-family="Inter, ui-sans-serif, system-ui, -apple-system, BlinkMacSystemFont, Segoe UI, sans-serif" font-size="58" font-weight="800" fill="#f8fafc">go-mysql-binlog</text>
  <text x="640" y="198" text-anchor="middle" font-family="Inter, ui-sans-serif, system-ui, -apple-system, BlinkMacSystemFont, Segoe UI, sans-serif" font-size="24" font-weight="500" fill="#cbd5e1">High-performance MySQL-family binlog decoder for Go</text>
  <text x="640" y="238" text-anchor="middle" font-family="Inter, ui-sans-serif, system-ui, -apple-system, BlinkMacSystemFont, Segoe UI, sans-serif" font-size="18" font-weight="600" fill="#86efac">MySQL 5.1+ · MariaDB · TiDB-compatible replication events</text>
</svg>
